<svg xmlns="http://www.w3.org/2000/svg" width="300" height="300">
  <path fill="#263f91" fill-rule="evenodd" d="M264.618 150.347c0 63.31-51.32 114.63-114.63 114.63-63.285 0-114.631-51.32-114.631-114.63 0-63.285 51.346-114.605 114.63-114.605 63.31 0 114.63 51.32 114.63 114.605"/>
  <path fill="#c7e6fa" fill-rule="evenodd" d="M208.522 150.347c0 32.348-26.212 58.534-58.535 58.534-32.322 0-58.534-26.186-58.534-58.534 0-32.323 26.212-58.535 58.534-58.535 32.348 0 58.535 26.212 58.535 58.535"/>
  <path fill="#deb56b" fill-rule="evenodd" d="M158.562 226.698c-1.72-1.155-3.98-1.283-5.853-.36-1.13.591-2.003 1.541-2.722 2.594-.693-1.053-1.566-2.003-2.721-2.593-1.849-.924-4.108-.796-5.828.36a5.865 5.865 0 0 0-2.644 4.877c0 1.078.334 2.157.821 3.132.411.796 1.002 1.464 1.592 2.131l8.78 9.679 8.806-9.679c.59-.667 1.181-1.335 1.592-2.13.488-.976.821-2.055.821-3.133 0-1.95-1-3.8-2.644-4.878m-8.575-133.936 16.842 34.12 37.637 5.468-27.24 26.546 6.444 37.482-33.683-17.688-33.657 17.688 6.418-37.482-27.24-26.546 37.663-5.469zm43.978 128.237-2.413 1.412 4.236 4.467zm1.027-6.778 3.62 14.069-3.286 1.977-10.244-10.115 2.62-1.566 2.258 2.284 3.44-2.053-.872-3.132zm13.735 6.752-2.285 1.823-8.6-10.962 2.285-1.823zm.72-16.97-1.002 1.053c-.539.564-.668 1.155-.462 1.797.205.642 1.13 1.771 2.773 3.389 1.283 1.232 2.233 1.951 2.875 2.105.616.154 1.18-.026 1.669-.539l1.027-1.078zm.461-3.62 9.961 9.73-3.363 3.543c-1.13 1.233-2.31 1.72-3.517 1.515-1.181-.231-2.773-1.31-4.775-3.26-.847-.822-1.49-1.54-1.951-2.157a4.478 4.478 0 0 1-.899-1.9c-.154-.539-.18-1.155-.026-1.848.18-.72.564-1.412 1.232-2.08zm20-4.441-2.157 3.286-10.012-2.156 7.958 5.34-1.489 2.31-11.553-7.779 2.08-3.235 10.526 2.388-8.421-5.648 1.515-2.285zm4.107-8.447-1.232 2.645-12.528-6.085 1.232-2.644zm6.932-23.388-.796 3.851-10.115 1.566 9.32 2.157-.54 2.67-13.555-3.132.77-3.774 10.655-1.49-9.859-2.284.539-2.696zm.77-9.345-.18 2.927-13.863-1.18.18-2.928zm-1.489-22.13 1.36 9.5-2.31.282-.487-3.286-11.502 1.386-.41-2.901 11.527-1.386-.488-3.312zm-16.893-8.883 13.402-3.825 2.233 7.291-2.054.565-1.386-4.468-3.26.925 1.283 4.133-2.08.59-1.257-4.133-3.954 1.104 1.412 4.621-2.054.59zm2.927-12.734 7.009.54 1.412 2.849-7.368-.796-5.238 6.726-1.463-2.952 5.058-6.084-6.547 3.08-1.284-2.618 12.606-5.93 1.283 2.618zm-8.138-7.548 1.694 2.337c-1.463 1-2.721 1.463-3.723 1.36-1.026-.077-1.976-.718-2.824-1.9-.975-1.334-1.335-2.567-1.052-3.722.257-1.155 1.258-2.336 2.952-3.517l1.156-.796.975-.668c1.772-1.232 3.26-1.822 4.416-1.745 1.18.076 2.31.821 3.337 2.233.745 1.078 1.053 2.08.899 3.055-.18.95-.976 1.926-2.388 2.901l-1.694-2.336c.693-.462 1.155-.899 1.412-1.31.257-.384.257-.77 0-1.129l-.053-.102c-.385-.514-.924-.668-1.617-.488-.719.205-1.926.873-3.569 2.028l-.487.334c-1.387.95-2.26 1.72-2.645 2.285-.36.564-.36 1.104 0 1.643l.077.103c.514.718 1.54.538 3.132-.565m-2.13-16.996 1.978 2.13-10.295 9.371-2.003-2.13zm-12.63-3.389 1 .822c.412.333.797.41 1.233.256.462-.128.847-.41 1.232-.872.77-.899.77-1.67-.026-2.311l-.975-.821zm-7.394 4.236 8.985-10.654 4.185 3.414c.693.59 1.13 1.31 1.258 2.131.154.822-.231 1.746-1.078 2.747-1.284 1.515-2.67 1.823-4.236.924.642.668.975 1.31 1 1.9.027.591-.307 1.284-1 2.105-1.284 1.515-2.003 2.542-2.182 3.107l-2.234-1.823c.053-.308.231-.667.539-1.078.334-.462.616-.796.847-1.053.822-.898 1.31-1.643 1.412-2.156.154-.514-.154-1.079-.873-1.67l-.59-.487-3.774 4.442zm-3.184-7.753 2.49 1.437c-.898 1.54-1.822 2.465-2.798 2.799-.975.334-2.08.154-3.337-.565-1.438-.821-2.26-1.823-2.516-2.978-.232-1.155.18-2.644 1.232-4.441l.719-1.181.59-1.027c1.104-1.874 2.208-3.004 3.286-3.44 1.13-.411 2.44-.205 3.928.667 1.156.668 1.849 1.464 2.105 2.413.232.95-.076 2.157-.95 3.672l-2.515-1.438c.436-.719.667-1.31.718-1.771.077-.514-.076-.848-.462-1.079l-.077-.052c-.564-.309-1.103-.231-1.668.231s-1.361 1.592-2.414 3.338l-.282.487c-.847 1.438-1.335 2.516-1.438 3.184-.077.667.128 1.18.668 1.514l.128.077c.744.411 1.617-.18 2.593-1.848M172.169 67.37l1.232.36c.488.153.899.052 1.232-.257.36-.283.616-.72.77-1.284.334-1.155.027-1.849-.95-2.13l-1.232-.36zm-5.032 6.855 3.877-13.376 5.185 1.463c.899.257 1.592.745 2.029 1.438.462.693.487 1.695.102 2.978-.539 1.874-1.694 2.722-3.466 2.516.847.385 1.412.847 1.669 1.36.283.514.257 1.285-.053 2.337-.564 1.9-.795 3.158-.744 3.723l-2.747-.796c-.103-.283-.103-.693.026-1.207.128-.539.257-.95.36-1.283.385-1.156.513-2.003.41-2.542-.076-.539-.564-.924-1.489-1.181l-.718-.205-1.643 5.571zm-9.961-8.421c-.205 1.9-.232 3.235-.077 3.98.154.718.616 1.155 1.386 1.232.77.076 1.31-.231 1.592-.95.308-.693.564-2.003.796-3.954.205-1.977.231-3.312.052-4.005-.153-.719-.616-1.104-1.36-1.18-.745-.078-1.284.23-1.592.898-.308.693-.565 2.002-.796 3.979m-2.824-1.31c.257-2.336.796-3.927 1.669-4.723.873-.822 2.13-1.104 3.774-.95 1.643.18 2.772.744 3.466 1.694.693.925.924 2.593.667 4.93l-.128 1.026-.103 1.079c-.257 2.387-.847 3.953-1.771 4.698-.924.744-2.13 1.027-3.646.847-1.745-.18-2.926-.77-3.568-1.797-.642-1.027-.847-2.567-.616-4.621l.154-1.207zm-11.631 8.242-.745-13.915 7.291-.385.129 2.156-4.39.205.204 3.543 4.185-.205.128 2.131-4.21.205.334 6.085zm-20.333-10.038 2.824-.77 3.157 11.141 4.237-1.18.641 2.259-7.06 1.95zm-9.217 11.193c.796 1.746 1.463 2.901 1.977 3.466.513.539 1.13.667 1.823.334.718-.334 1-.847.898-1.618-.102-.744-.564-2.002-1.386-3.774-.847-1.797-1.515-2.978-2.028-3.491-.514-.513-1.104-.591-1.797-.283-.668.283-.976.822-.899 1.566.103.745.565 2.003 1.412 3.8zm-3.132.334c-1.001-2.157-1.36-3.774-1.027-4.904.334-1.13 1.258-2.028 2.773-2.721 1.489-.668 2.772-.796 3.85-.308 1.079.436 2.131 1.746 3.133 3.876l.873 1.9c1.027 2.182 1.335 3.851.924 4.955-.41 1.078-1.284 1.951-2.67 2.567-1.592.72-2.953.822-4.005.257-1.078-.564-2.054-1.771-2.927-3.62l-.513-1.13zm-9.32 5.802 1.053-.719c.41-.283.616-.641.59-1.104 0-.462-.18-.924-.513-1.412-.667-.976-1.438-1.18-2.285-.616l-1.052.72zm2.131 8.164-7.958-11.425 4.441-3.029c.77-.513 1.592-.719 2.413-.642.848.102 1.644.719 2.388 1.823 1.13 1.591 1.053 3.03-.257 4.236.873-.411 1.566-.565 2.131-.411.59.102 1.18.642 1.797 1.515 1.13 1.617 1.951 2.593 2.439 2.926l-2.388 1.592c-.282-.102-.59-.36-.898-.796-.334-.436-.616-.796-.796-1.078-.667-1.027-1.232-1.669-1.72-1.925-.462-.283-1.078-.154-1.874.385l-.616.436 3.312 4.75zm-19.485-1.207 6.957-6.572 1.617 1.669-2.413 2.285 8.087 8.292-2.13 2.003-8.088-8.293-2.413 2.285zM73.122 99.822l2.362-3.158 10.038 2.542-7.779-5.571 1.643-2.183 11.322 8.087-2.31 3.081-10.527-2.773 8.216 5.88-1.643 2.208zm-.053 14.71c1.72.822 2.978 1.258 3.723 1.387.745.077 1.31-.23 1.643-.924.36-.694.231-1.284-.334-1.797-.564-.514-1.72-1.181-3.466-2.003-1.822-.847-3.106-1.31-3.8-1.36-.718-.078-1.257.204-1.591.898-.334.667-.231 1.258.308 1.771.54.514 1.72 1.181 3.517 2.029m-2.233 2.233c-2.157-1.001-3.44-2.028-3.902-3.08-.463-1.079-.334-2.363.41-3.852.72-1.463 1.643-2.362 2.773-2.695 1.13-.36 2.773-.027 4.93.975l.923.437.976.436c2.182 1.027 3.466 2.105 3.851 3.21.385 1.103.231 2.31-.436 3.67-.77 1.566-1.772 2.49-2.953 2.773-1.18.23-2.721-.052-4.57-.95l-1.13-.513zm.36 8.395.82-2.773c1.72.463 2.85 1.13 3.415 1.952.565.847.643 1.977.232 3.363-.462 1.592-1.233 2.644-2.31 3.158-1.08.539-2.645.539-4.648-.027l-1.335-.36-1.13-.307c-2.105-.565-3.49-1.31-4.158-2.26-.694-.95-.77-2.259-.283-3.928.36-1.258 1.001-2.13 1.848-2.618.873-.488 2.157-.488 3.826-.053l-.822 2.773c-.77-.23-1.437-.308-1.925-.23-.488.052-.796.307-.899.718l-.052.128c-.18.59.052 1.104.615 1.515.616.436 1.875.898 3.851 1.437l.565.154c1.592.437 2.747.616 3.44.54.693-.078 1.13-.437 1.335-1.053l.053-.129c.231-.821-.565-1.514-2.44-2.002m.849 23.955-13.915-.462.385-7.291 2.156.077-.231 4.364 3.517.128.232-4.21 2.156.077-.231 4.21 6.084.18zm-6.265 11.681c1.926-.23 3.21-.513 3.903-.821.693-.334 1-.873.898-1.643-.052-.77-.487-1.207-1.232-1.36-.745-.129-2.08-.078-4.005.153-1.977.257-3.312.539-3.928.873-.668.334-.95.873-.873 1.617.053.745.462 1.181 1.207 1.335.744.128 2.08.077 4.03-.154m-.693 3.081c-2.336.283-4.005.103-4.955-.539-.95-.667-1.515-1.823-1.694-3.491-.18-1.618.154-2.876.924-3.774.796-.873 2.362-1.49 4.698-1.772l1.027-.128 1.053-.128c2.413-.283 4.056-.077 4.955.641.924.72 1.437 1.849 1.591 3.364.18 1.745-.18 3.03-1.027 3.902-.898.847-2.336 1.386-4.39 1.643l-1.206.154zm10.552 16.2-.514-1.36c-.282-.694-.744-1.079-1.412-1.156-.667-.077-2.053.308-4.184 1.155-1.669.668-2.722 1.258-3.132 1.772-.411.513-.488 1.104-.232 1.771l.514 1.386zM78.64 182l-12.914 5.186-1.72-4.57c-.59-1.565-.54-2.85.154-3.876.718-1.001 2.362-2.028 4.955-3.055 1.103-.437 2.028-.77 2.747-.924a4.405 4.405 0 0 1 2.08-.027c.564.053 1.103.309 1.668.745.539.436 1.001 1.104 1.335 1.977zm-2.054 12.94-.642-1.13c-.257-.41-.616-.642-1.053-.642-.462-.026-.95.128-1.438.436-1.027.616-1.283 1.361-.77 2.234l.642 1.104zm8.266-1.618-11.86 7.24-2.748-4.647c-.462-.796-.615-1.617-.462-2.439.128-.821.77-1.591 1.926-2.285 1.669-1.027 3.08-.847 4.236.514-.385-.873-.488-1.592-.308-2.157.18-.564.693-1.13 1.617-1.694 1.72-1.027 2.721-1.797 3.08-2.26l1.464 2.465c-.154.283-.436.565-.873.899-.436.282-.821.539-1.13.693-1.052.616-1.745 1.155-2.027 1.592-.309.462-.206 1.104.256 1.9l.411.667 4.955-3.03zm2.696 11.99-1.797-2.131-3.594 5.032zm6.752-.205-13.016 6.212-2.49-2.926 8.01-12.092 1.976 2.336-1.822 2.67 2.593 3.055 2.875-1.438zm2.978 11.757c1.207-1.514 1.951-2.618 2.234-3.311.257-.72.102-1.31-.514-1.797-.59-.514-1.18-.54-1.822-.103-.616.41-1.54 1.386-2.773 2.901-1.258 1.566-2.003 2.67-2.234 3.363-.23.693-.076 1.258.514 1.746s1.18.513 1.797.103c.642-.411 1.566-1.387 2.798-2.902m1.669 2.67c-1.49 1.849-2.798 2.85-3.954 3.056-1.155.205-2.362-.231-3.645-1.31-1.258-1.027-1.9-2.13-1.977-3.312-.053-1.206.642-2.695 2.105-4.544l.668-.796.667-.821c1.515-1.9 2.85-2.875 4.03-3.004 1.156-.102 2.311.308 3.467 1.284 1.36 1.13 2.028 2.285 2.002 3.491-.026 1.233-.693 2.645-1.977 4.236l-.77.976zm12.914 1.233-1.567-.873c-1.052-.616-1.9-.334-2.541.796-.616 1.155-.385 2.054.719 2.695l1.463.848zm-2.953 5.34-1.669-.95c-.41-.231-.821-.308-1.232-.154-.41.128-.744.41-1.027.899a1.868 1.868 0 0 0-.18 1.335c.103.462.36.821.797 1.052l1.591.899zm6.521-5.777-6.752 12.195-4.621-2.644c-2.285-1.31-2.85-3.004-1.669-5.135.822-1.489 2.028-1.977 3.594-1.463-.744-.59-1.155-1.233-1.258-1.9-.102-.693.129-1.54.668-2.542 1.18-2.13 3.004-2.49 5.468-1.104zm42.438-174.397a2.782 2.782 0 0 1 3.08-2.49 2.782 2.782 0 0 1 2.49 3.08c-.127 1.54-1.514 2.67-3.08 2.49-1.515-.153-2.644-1.54-2.49-3.08m-21.335 208.26a2.82 2.82 0 0 1 3.081-2.516c1.54.18 2.67 1.54 2.516 3.081a2.82 2.82 0 0 1-3.08 2.516 2.82 2.82 0 0 1-2.517-3.08m31.86-206.926a2.772 2.772 0 0 1 3.312-2.157 2.796 2.796 0 0 1 2.183 3.312c-.308 1.515-1.797 2.49-3.338 2.182-1.515-.333-2.49-1.822-2.156-3.337M126.11 252.294a2.809 2.809 0 0 1 3.312-2.182c1.515.334 2.516 1.797 2.182 3.338a2.809 2.809 0 0 1-3.312 2.182 2.848 2.848 0 0 1-2.182-3.338m52.604-202.637c.462-1.464 2.054-2.311 3.518-1.823a2.8 2.8 0 0 1 1.848 3.517 2.838 2.838 0 0 1-3.543 1.849 2.845 2.845 0 0 1-1.823-3.543m-62.796 199.71a2.81 2.81 0 0 1 3.517-1.848c1.49.462 2.31 2.054 1.849 3.543a2.845 2.845 0 0 1-3.543 1.823c-1.464-.462-2.285-2.054-1.823-3.517M188.752 53.07a2.818 2.818 0 0 1 3.697-1.463 2.818 2.818 0 0 1 1.464 3.697 2.818 2.818 0 0 1-3.697 1.463 2.797 2.797 0 0 1-1.464-3.697m-82.667 192.343a2.797 2.797 0 0 1 3.697-1.463c1.412.59 2.08 2.259 1.463 3.67-.615 1.439-2.285 2.08-3.697 1.49a2.805 2.805 0 0 1-1.463-3.697m92.32-187.901a2.79 2.79 0 0 1 3.8-1.104 2.827 2.827 0 0 1 1.104 3.825c-.77 1.36-2.464 1.848-3.825 1.078a2.76 2.76 0 0 1-1.078-3.8M96.689 240.486c.744-1.36 2.464-1.849 3.825-1.104 1.36.77 1.848 2.49 1.078 3.825-.744 1.36-2.464 1.849-3.825 1.104a2.818 2.818 0 0 1-1.078-3.825M207.545 62.878c.873-1.283 2.619-1.592 3.902-.719 1.258.899 1.592 2.67.694 3.928-.899 1.284-2.645 1.592-3.903.694-1.283-.873-1.591-2.62-.693-3.903M87.857 234.631a2.807 2.807 0 0 1 3.902-.719c1.284.899 1.592 2.67.694 3.928a2.805 2.805 0 0 1-3.903.694 2.778 2.778 0 0 1-.693-3.903M216.094 69.142a2.78 2.78 0 0 1 3.954-.282c1.18 1.001 1.31 2.773.308 3.954-1.027 1.155-2.798 1.309-3.98.282a2.803 2.803 0 0 1-.282-3.954M79.642 227.905a2.781 2.781 0 0 1 3.953-.283c1.181 1.002 1.31 2.773.309 3.954a2.832 2.832 0 0 1-3.98.283 2.803 2.803 0 0 1-.282-3.954M223.95 76.254a2.806 2.806 0 0 1 3.98.102 2.775 2.775 0 0 1-.103 3.954 2.806 2.806 0 0 1-3.98-.102c-1.052-1.13-1.026-2.901.103-3.954M72.17 220.383c1.13-1.053 2.902-1.027 3.955.128 1.078 1.104 1.027 2.875-.103 3.954-1.104 1.078-2.901 1.026-3.954-.103a2.806 2.806 0 0 1 .103-3.98M231.089 84.11c1.206-.95 2.978-.719 3.928.488.95 1.258.718 3.003-.514 3.953-1.206.95-2.978.72-3.928-.513-.95-1.207-.719-2.978.514-3.928M65.47 212.167a2.84 2.84 0 0 1 3.954.488 2.82 2.82 0 0 1-.513 3.954c-1.233.95-3.004.719-3.928-.514-.95-1.232-.745-2.978.487-3.927M237.353 92.632c1.335-.796 3.055-.41 3.876.899a2.82 2.82 0 0 1-.898 3.877c-1.31.821-3.055.41-3.877-.899-.796-1.31-.41-3.055.899-3.877M59.669 203.284a2.802 2.802 0 0 1 3.851.925c.822 1.309.411 3.03-.898 3.85-1.31.822-3.055.411-3.851-.898a2.802 2.802 0 0 1 .898-3.877m183.1-101.511a2.82 2.82 0 0 1 3.75 1.284 2.842 2.842 0 0 1-1.285 3.774 2.842 2.842 0 0 1-3.773-1.284 2.83 2.83 0 0 1 1.309-3.774M54.766 193.888c1.386-.693 3.08-.102 3.774 1.284.667 1.386.102 3.08-1.31 3.748a2.777 2.777 0 0 1-3.748-1.284c-.667-1.386-.102-3.08 1.284-3.748m192.42-82.488c1.463-.513 3.08.205 3.62 1.67.538 1.463-.206 3.08-1.67 3.593-1.463.565-3.054-.18-3.62-1.643-.538-1.463.232-3.08 1.67-3.62M50.863 184.03c1.438-.54 3.055.205 3.595 1.668a2.787 2.787 0 0 1-1.67 3.595c-1.437.539-3.054-.205-3.593-1.643a2.815 2.815 0 0 1 1.668-3.62m199.763-62.591a2.82 2.82 0 0 1 3.44 2.028 2.805 2.805 0 0 1-2.028 3.414 2.805 2.805 0 0 1-3.415-2.028c-.41-1.489.514-3.03 2.003-3.414M47.962 173.837c1.49-.385 3.03.514 3.415 2.003a2.82 2.82 0 0 1-2.028 3.44 2.805 2.805 0 0 1-3.415-2.028 2.793 2.793 0 0 1 2.028-3.415M253.04 131.76a2.815 2.815 0 0 1 3.21 2.362c.23 1.54-.822 2.952-2.363 3.21a2.816 2.816 0 0 1-3.209-2.363 2.815 2.815 0 0 1 2.362-3.209M46.114 163.39c1.54-.232 2.952.821 3.209 2.361.231 1.515-.847 2.953-2.362 3.21a2.816 2.816 0 0 1-3.21-2.362 2.815 2.815 0 0 1 2.363-3.21M254.4 142.285c1.54-.077 2.85 1.13 2.927 2.67.102 1.54-1.104 2.876-2.645 2.953-1.566.052-2.875-1.13-2.952-2.67a2.798 2.798 0 0 1 2.67-2.953M45.318 152.811a2.815 2.815 0 0 1 .282 5.622 2.83 2.83 0 0 1-2.952-2.67 2.815 2.815 0 0 1 2.67-2.952m209.364.077a2.777 2.777 0 0 1 2.645 2.952c-.053 1.54-1.387 2.722-2.953 2.645a2.794 2.794 0 0 1-2.644-2.953 2.777 2.777 0 0 1 2.952-2.644M45.6 142.208c1.567.103 2.747 1.412 2.67 2.952a2.813 2.813 0 0 1-2.952 2.67c-1.566-.076-2.721-1.412-2.67-2.952.103-1.54 1.412-2.747 2.952-2.67m208.286 21.257c1.515.232 2.593 1.67 2.337 3.21-.232 1.514-1.67 2.567-3.21 2.336-1.514-.232-2.567-1.669-2.336-3.21.232-1.514 1.669-2.592 3.21-2.336M46.96 131.708a2.815 2.815 0 0 1 2.362 3.209c-.231 1.515-1.669 2.567-3.21 2.336a2.816 2.816 0 0 1-2.361-3.209c.257-1.54 1.694-2.593 3.21-2.336m205.05 42.18a2.82 2.82 0 0 1 2.028 3.44c-.385 1.49-1.925 2.389-3.44 2.003-1.489-.385-2.387-1.925-2.002-3.414a2.805 2.805 0 0 1 3.414-2.028M49.374 121.362c1.49.41 2.414 1.925 2.029 3.44a2.785 2.785 0 0 1-3.44 2.002c-1.49-.385-2.388-1.925-2.003-3.414a2.805 2.805 0 0 1 3.414-2.028m199.737 62.745c1.463.538 2.208 2.156 1.669 3.594a2.815 2.815 0 0 1-3.62 1.669 2.781 2.781 0 0 1-1.643-3.62c.539-1.464 2.156-2.208 3.594-1.643M52.815 111.349c1.463.539 2.207 2.157 1.668 3.594a2.815 2.815 0 0 1-3.62 1.669 2.823 2.823 0 0 1-1.643-3.62c.54-1.438 2.157-2.182 3.595-1.643m192.394 82.59a2.85 2.85 0 0 1 1.283 3.774 2.85 2.85 0 0 1-3.773 1.284c-1.387-.693-1.977-2.388-1.284-3.774a2.842 2.842 0 0 1 3.774-1.284M57.282 101.722a2.788 2.788 0 0 1 1.258 3.748c-.668 1.412-2.362 1.977-3.749 1.31-1.386-.694-1.976-2.388-1.283-3.775.693-1.412 2.362-1.95 3.774-1.283m183.023 101.64a2.82 2.82 0 0 1 .899 3.876c-.822 1.31-2.568 1.72-3.877.873-1.31-.822-1.72-2.542-.898-3.851.821-1.335 2.541-1.72 3.876-.899M62.673 92.582c1.31.822 1.72 2.567.899 3.877-.822 1.309-2.568 1.72-3.877.898-1.31-.821-1.72-2.567-.899-3.876a2.82 2.82 0 0 1 3.877-.899m171.804 119.637a2.816 2.816 0 0 1 .514 3.928 2.82 2.82 0 0 1-3.954.513c-1.232-.95-1.438-2.721-.513-3.954a2.84 2.84 0 0 1 3.954-.487M68.963 84.059c1.207.95 1.438 2.72.488 3.928-.95 1.232-2.722 1.463-3.928.513-1.233-.976-1.464-2.722-.514-3.928a2.82 2.82 0 0 1 3.954-.514m158.814 136.376a2.806 2.806 0 0 1 .102 3.98c-1.078 1.129-2.85 1.18-3.953.102-1.13-1.053-1.181-2.85-.103-3.98 1.053-1.129 2.85-1.155 3.954-.102M76.074 76.203c1.13 1.052 1.181 2.85.103 3.953a2.806 2.806 0 0 1-3.98.103c-1.103-1.053-1.155-2.85-.076-3.98 1.052-1.103 2.85-1.155 3.953-.076m144.232 151.753c1.001 1.181.873 2.953-.308 3.954a2.782 2.782 0 0 1-3.954-.308c-1.027-1.156-.873-2.953.308-3.954 1.156-1.027 2.953-.873 3.954.308M83.956 69.091a2.837 2.837 0 0 1-.308 3.98c-1.181 1-2.953.872-3.954-.309-1.001-1.18-.873-2.952.308-3.953a2.78 2.78 0 0 1 3.954.282m128.135 165.566c.898 1.284.564 3.03-.694 3.928a2.837 2.837 0 0 1-3.928-.719c-.873-1.258-.564-3.03.694-3.902 1.283-.899 3.029-.565 3.928.693M92.53 62.827c.873 1.284.564 3.03-.719 3.902-1.284.899-3.03.59-3.902-.693-.873-1.258-.565-3.03.693-3.902 1.284-.899 3.03-.565 3.928.693M203.233 240.51c.77 1.361.283 3.081-1.104 3.826a2.797 2.797 0 0 1-3.8-1.104c-.744-1.335-.256-3.055 1.105-3.825a2.79 2.79 0 0 1 3.8 1.103M101.67 57.461c.745 1.36.257 3.081-1.103 3.825-1.361.77-3.081.257-3.8-1.103-.77-1.335-.283-3.056 1.078-3.8a2.818 2.818 0 0 1 3.825 1.078m92.193 187.979c.59 1.412-.053 3.08-1.49 3.67-1.411.617-3.08-.025-3.67-1.462-.643-1.412.026-3.081 1.463-3.697 1.437-.59 3.08.052 3.697 1.489M111.298 53.07a2.778 2.778 0 0 1-1.463 3.671 2.82 2.82 0 0 1-3.697-1.463 2.81 2.81 0 0 1 1.489-3.697 2.781 2.781 0 0 1 3.67 1.49m72.707 196.321a2.79 2.79 0 0 1-1.848 3.518 2.811 2.811 0 0 1-3.518-1.849c-.436-1.489.36-3.055 1.849-3.517a2.8 2.8 0 0 1 3.517 1.848M121.336 49.657a2.811 2.811 0 0 1-1.848 3.517c-1.464.462-3.03-.36-3.518-1.849a2.8 2.8 0 0 1 1.849-3.517 2.8 2.8 0 0 1 3.517 1.849m52.476 202.663a2.808 2.808 0 0 1-2.182 3.312 2.808 2.808 0 0 1-3.312-2.182 2.808 2.808 0 0 1 2.182-3.312c1.515-.334 3.004.667 3.312 2.182M131.682 47.27a2.808 2.808 0 0 1-2.182 3.312 2.808 2.808 0 0 1-3.312-2.182 2.77 2.77 0 0 1 2.182-3.312c1.515-.334 3.004.667 3.312 2.182m31.707 206.925a2.82 2.82 0 0 1-2.516 3.081 2.82 2.82 0 0 1-3.081-2.516c-.154-1.515.975-2.901 2.516-3.08 1.54-.129 2.927 1 3.08 2.515m-21.18-208.26a2.82 2.82 0 0 1-2.516 3.08 2.82 2.82 0 0 1-3.08-2.515c-.154-1.54.975-2.901 2.516-3.081a2.82 2.82 0 0 1 3.08 2.516m10.603 209.107a2.805 2.805 0 0 1-2.798 2.799c-1.566 0-2.824-1.258-2.824-2.799a2.816 2.816 0 0 1 2.824-2.824c1.54 0 2.798 1.258 2.798 2.824m0-209.364c0 1.566-1.258 2.824-2.798 2.824a2.816 2.816 0 0 1-2.824-2.824c0-1.54 1.258-2.798 2.824-2.798a2.805 2.805 0 0 1 2.798 2.798m6.752 41.36c-1.514-.231-2.567-1.67-2.336-3.21.205-1.514 1.643-2.592 3.184-2.361 1.54.257 2.593 1.668 2.361 3.209a2.816 2.816 0 0 1-3.209 2.362M139.59 219.253c-1.54-.257-2.593-1.669-2.362-3.209a2.816 2.816 0 0 1 3.209-2.362 2.83 2.83 0 0 1 2.336 3.21 2.79 2.79 0 0 1-3.183 2.361m29.318-130.086a2.835 2.835 0 0 1-1.874-3.517c.462-1.463 2.054-2.31 3.517-1.848 1.49.462 2.337 2.028 1.875 3.517a2.81 2.81 0 0 1-3.518 1.848m-39.46 127.75a2.794 2.794 0 0 1-1.873-3.517 2.82 2.82 0 0 1 3.517-1.849 2.8 2.8 0 0 1 1.848 3.517c-.436 1.49-2.028 2.311-3.491 1.849m48.368-124.258c-1.412-.667-2.003-2.336-1.31-3.723a2.772 2.772 0 0 1 3.749-1.309 2.793 2.793 0 0 1 1.31 3.723c-.694 1.412-2.363 2.002-3.75 1.309m-58.072 120.458a2.823 2.823 0 0 1-1.309-3.748c.693-1.412 2.362-2.003 3.748-1.31 1.412.668 1.977 2.363 1.31 3.749a2.823 2.823 0 0 1-3.749 1.31m66.34-115.658a2.825 2.825 0 0 1-.72-3.902 2.806 2.806 0 1 1 4.621 3.183 2.825 2.825 0 0 1-3.901.719m-75.35 110.446a2.808 2.808 0 0 1-.745-3.903c.872-1.283 2.618-1.617 3.928-.744a2.825 2.825 0 0 1 .718 3.902 2.808 2.808 0 0 1-3.902.745m82.847-104.49a2.776 2.776 0 0 1-.154-3.954c1.053-1.13 2.824-1.206 3.954-.153 1.155 1.052 1.232 2.85.154 3.979a2.775 2.775 0 0 1-3.954.128m-90.985 97.994c-1.13-1.052-1.207-2.85-.154-3.953 1.053-1.156 2.85-1.207 3.98-.154a2.775 2.775 0 0 1 .127 3.953 2.776 2.776 0 0 1-3.953.154m97.48-90.96c-.95-1.232-.77-2.978.463-3.953a2.808 2.808 0 0 1 3.928.462 2.782 2.782 0 0 1-.437 3.928c-1.207.975-2.978.77-3.954-.437M95.51 193.785a2.84 2.84 0 0 1 .462-3.953 2.819 2.819 0 0 1 3.954.462 2.808 2.808 0 0 1-.462 3.928c-1.207.975-2.979.77-3.954-.437m109.958-75.427a2.808 2.808 0 0 1 1.027-3.825c1.36-.77 3.08-.334 3.85 1.026a2.793 2.793 0 0 1-1.052 3.826 2.808 2.808 0 0 1-3.825-1.027M89.655 185.185a2.838 2.838 0 0 1 1.027-3.851c1.335-.77 3.081-.308 3.851 1.027.77 1.36.309 3.08-1.052 3.85a2.808 2.808 0 0 1-3.826-1.026m119.97-58.201a2.803 2.803 0 0 1 1.593-3.646 2.824 2.824 0 0 1 3.645 1.592 2.824 2.824 0 0 1-1.592 3.646 2.824 2.824 0 0 1-3.645-1.592M85.137 175.789a2.824 2.824 0 0 1 1.592-3.646 2.824 2.824 0 0 1 3.645 1.592 2.815 2.815 0 0 1-1.591 3.645 2.803 2.803 0 0 1-3.646-1.591m127.313-39.665c-.36-1.515.59-3.004 2.105-3.364 1.515-.333 3.03.616 3.363 2.106.334 1.54-.59 3.029-2.13 3.388a2.806 2.806 0 0 1-3.338-2.13m-130.368 29.73c-.36-1.516.616-3.03 2.105-3.364 1.515-.36 3.03.59 3.363 2.105a2.784 2.784 0 0 1-2.105 3.363c-1.515.334-3.03-.59-3.363-2.105m131.78-20.256a2.781 2.781 0 0 1 2.593-3.004 2.761 2.761 0 0 1 3.004 2.568c.128 1.566-1.053 2.926-2.593 3.029-1.54.102-2.901-1.053-3.004-2.593m-133.346 9.961a2.801 2.801 0 0 1 2.618-3.004c1.54-.128 2.876 1.053 3.004 2.568.103 1.566-1.052 2.926-2.618 3.03-1.515.102-2.876-1.053-3.004-2.594m133.346-.41a2.8 2.8 0 0 1 3.03-2.568c1.54.103 2.695 1.463 2.567 3.004-.103 1.54-1.464 2.696-3.004 2.593-1.54-.128-2.721-1.464-2.593-3.03m-133.32-10.012c.102-1.54 1.463-2.696 3.003-2.593 1.54.128 2.696 1.489 2.593 3.03a2.837 2.837 0 0 1-3.03 2.592 2.8 2.8 0 0 1-2.566-3.03m131.882 19.487c.36-1.515 1.874-2.465 3.363-2.105 1.515.333 2.465 1.848 2.131 3.363-.36 1.514-1.874 2.464-3.363 2.105a2.833 2.833 0 0 1-2.13-3.363M82.081 134.84c.334-1.49 1.848-2.439 3.363-2.105a2.784 2.784 0 0 1 2.105 3.363c-.334 1.515-1.848 2.465-3.337 2.105-1.54-.334-2.465-1.848-2.131-3.363M209.6 173.76c.565-1.437 2.208-2.156 3.646-1.566a2.775 2.775 0 0 1 1.591 3.62 2.824 2.824 0 0 1-3.645 1.592 2.815 2.815 0 0 1-1.592-3.646M85.163 124.904a2.815 2.815 0 0 1 3.645-1.591c1.438.564 2.157 2.208 1.566 3.645a2.824 2.824 0 0 1-3.645 1.592c-1.438-.565-2.131-2.208-1.566-3.646m120.304 57.483a2.808 2.808 0 0 1 3.825-1.027c1.335.77 1.797 2.49 1.027 3.85a2.808 2.808 0 0 1-3.825 1.027c-1.36-.795-1.823-2.515-1.027-3.85M89.68 115.534c.77-1.36 2.49-1.797 3.825-1.027a2.802 2.802 0 0 1 1.027 3.825 2.808 2.808 0 0 1-3.825 1.027 2.764 2.764 0 0 1-1.027-3.825m110.394 74.76a2.782 2.782 0 0 1 3.928-.437c1.233.976 1.438 2.747.437 3.954a2.782 2.782 0 0 1-3.928.437c-1.232-.976-1.412-2.722-.437-3.954m-104.54-83.386c.975-1.207 2.747-1.412 3.953-.437 1.207.976 1.412 2.747.437 3.954-.976 1.232-2.722 1.412-3.954.436-1.207-.95-1.412-2.721-.436-3.953m98.02 90.42a2.805 2.805 0 0 1 3.979.128c1.052 1.13.975 2.927-.154 3.98a2.83 2.83 0 0 1-3.98-.154 2.777 2.777 0 0 1 .154-3.954M102.62 99.283a2.799 2.799 0 0 1 3.954.153 2.805 2.805 0 0 1-.128 3.98c-1.155 1.052-2.927 1.001-3.98-.154a2.808 2.808 0 0 1 .154-3.98m83.464 104.002c1.258-.872 3.003-.539 3.902.745.873 1.258.513 3.004-.745 3.902a2.808 2.808 0 1 1-3.157-4.647m-75.325-110.47c1.283-.874 3.03-.565 3.902.718a2.808 2.808 0 0 1-.744 3.902c-1.258.899-3.03.54-3.903-.719-.873-1.309-.539-3.055.745-3.902M177.79 208.06a2.811 2.811 0 0 1 3.749 1.335c.667 1.386.076 3.055-1.31 3.748a2.84 2.84 0 0 1-3.774-1.335 2.811 2.811 0 0 1 1.335-3.748M119.77 87.6a2.815 2.815 0 0 1 3.748 1.31 2.815 2.815 0 0 1-1.31 3.748c-1.385.668-3.08.103-3.747-1.31a2.823 2.823 0 0 1 1.309-3.748m49.113 123.95a2.777 2.777 0 0 1 3.491 1.874c.462 1.49-.36 3.055-1.848 3.492a2.8 2.8 0 0 1-3.517-1.849 2.835 2.835 0 0 1 1.874-3.517m-39.409-127.75c1.464-.461 3.056.386 3.492 1.85a2.82 2.82 0 0 1-1.849 3.516c-1.489.463-3.055-.385-3.517-1.874a2.819 2.819 0 0 1 1.874-3.491m30.064 129.88a2.868 2.868 0 0 1 3.209 2.388c.231 1.514-.847 2.952-2.362 3.183a2.815 2.815 0 0 1-3.21-2.362 2.815 2.815 0 0 1 2.363-3.209m-19.923-132.19a2.791 2.791 0 0 1 3.184 2.361c.257 1.515-.822 2.953-2.336 3.184a2.815 2.815 0 0 1-3.21-2.362 2.79 2.79 0 0 1 2.362-3.184m10.398 132.91c1.54 0 2.798 1.258 2.798 2.824a2.805 2.805 0 0 1-2.798 2.798c-1.566 0-2.824-1.258-2.824-2.798a2.816 2.816 0 0 1 2.824-2.824m0-133.706c1.54 0 2.798 1.258 2.798 2.824a2.805 2.805 0 0 1-2.798 2.799 2.816 2.816 0 0 1-2.824-2.824c0-1.54 1.258-2.799 2.824-2.799m133.808 67.572c6.316-8.883 11.27-17.714 6.65-26.572-6.008 6.162-21.18 13.376-27.548 8.909a116.413 116.413 0 0 1 1.695 19.743c0 5.417-.385 10.73-1.104 15.917 8.6-4.467 28.728 3.26 36.43 11.912.744-9.987-5.982-19.948-16.123-29.909M58.155 218.945c-3.133 9.165-22.618 17.843-34.094 17.15 6.495 7.573 18.279 9.884 32.528 9.755 1.797 10.732 4.57 20.513 14.094 23.517-.154-8.446 5.314-23.825 12.708-25.699a115.844 115.844 0 0 1-25.236-24.723m75.76 44.902c4.083 8.78-3.542 28.497-12.091 36.097 9.961.744 19.896-5.957 29.909-16.123 8.857 6.341 17.74 11.296 26.572 6.65-6.034-5.854-13.042-20.437-9.243-27.086a116.855 116.855 0 0 1-19.075 1.592 114.43 114.43 0 0 1-16.071-1.13M36.589 133.685c-8.549 4.57-28.805-3.158-36.533-11.861-.744 9.96 5.957 19.948 16.123 29.909-6.341 8.857-11.296 17.74-6.65 26.597 5.957-6.161 20.95-13.298 27.42-9.011a115.37 115.37 0 0 1-1.566-18.972c0-5.649.41-11.22 1.206-16.662M219.022 241.87c9.166 3.21 17.74 22.618 17.073 34.043 7.6-6.47 9.858-18.305 9.756-32.477 10.757-1.823 20.487-4.595 23.49-14.146-8.472.154-23.953-5.34-25.698-12.81-6.855 9.653-15.173 18.253-24.62 25.39M166.468 36.923c-4.929-8.344 2.876-29.01 11.707-36.867-9.986-.744-19.948 5.982-29.909 16.123-8.831-6.341-17.74-11.27-26.597-6.65 6.315 6.085 13.632 21.72 8.677 27.882a115.286 115.286 0 0 1 19.666-1.67c5.571 0 11.09.412 16.456 1.182m75.197 44.62c2.567-9.371 22.592-18.331 34.274-17.638-6.521-7.6-18.331-9.884-32.528-9.781-1.823-10.706-4.57-20.487-14.12-23.465.153 8.728-5.674 24.902-13.505 25.852v-.026c9.885 6.957 18.64 15.404 25.879 25.057M81.62 58.36c-9.397-2.49-18.433-22.567-17.715-34.3-7.599 6.496-9.884 18.331-9.781 32.528-10.731 1.797-20.487 4.57-23.465 14.12 8.651-.153 24.671 5.597 25.827 13.35A114.77 114.77 0 0 1 81.62 58.36m9.935 190.623c.488 9.653-14.146 24.98-24.954 28.753 8.909 4.519 20.693 2.131 33.76-3.414 5.777 9.242 12.066 17.175 22.079 16.302-3.363-7.727-4.262-23.876 1.771-28.574a114.05 114.05 0 0 1-32.656-13.067m87.135 12.374c7.137 6.547 7.65 27.65 2.644 37.945 9.525-3.107 16.123-13.145 21.463-26.315 10.628 2.439 20.692 3.62 27.11-4.056-7.83-3.081-19.922-13.967-18.895-21.54-9.858 6.213-20.718 10.988-32.322 13.966m70.139-52.912c9.653-.616 25.134 14.069 28.882 24.98 4.544-8.935 2.13-20.693-3.415-33.812 9.243-5.776 17.201-12.066 16.303-22.027-7.83 3.414-24.415 4.261-28.754-2.131a113.2 113.2 0 0 1-13.016 32.99m-15.43-186.182c-8.934-4.518-20.718-2.105-33.786 3.44-5.75-9.242-12.092-17.2-22.027-16.327 3.491 8.06 4.262 25.313-2.645 29.087a114.461 114.461 0 0 1 33.555 13.299c-1.31-9.602 13.812-25.648 24.903-29.499m65.903 96.377c-3.08-9.499-13.145-16.123-26.315-21.437 2.465-10.628 3.594-20.692-4.056-27.136-3.158 8.087-14.583 20.667-22.207 18.767a114.351 114.351 0 0 1 14.3 32.861c6.084-7.522 27.803-8.112 38.278-3.055M121.927 39.208c-7.754-5.854-8.421-27.933-3.287-38.51-9.499 3.106-16.122 13.145-21.462 26.34-10.603-2.464-20.718-3.645-27.085 4.006 8.112 3.209 20.82 14.813 18.715 22.387a113.294 113.294 0 0 1 33.119-14.223M.698 181.334c3.107 9.499 13.145 16.148 26.315 21.463-2.439 10.628-3.62 20.692 4.03 27.136 3.133-7.907 14.121-20.102 21.72-18.87-6.213-9.96-10.962-20.923-13.915-32.604-6.29 7.368-27.752 7.933-38.15 2.875m50.936-89.83C42.006 92.684 26.089 77.64 22.238 66.6c-4.493 8.908-2.105 20.692 3.44 33.786-9.217 5.776-17.175 12.092-16.302 22.027 7.881-3.44 24.723-4.262 28.882 2.285a114.468 114.468 0 0 1 13.376-33.195"/>
</svg>
